# xmcd
# 
# Track frame offsets:
#     150
#     10565
#     34065
#     50702
#     71622
#     107639
#     137328
#     157647
#     174463
# 
# Disc length: 2618
# 
# Revision: 6
# Processed by: cddbd v1.5.2PL0 Copyright (c) Steve Scherf et al.
# Submitted via: fre:ac v1.0.17
# 
DISCID=640a3809
DTITLE=Motorpsycho - Phanerothyme
DYEAR=2001
DGENRE=Indie Rock
TTITLE0=Bedroom Eyes
TTITLE1=For Free
TTITLE2=B.S.
TTITLE3=Landslide
TTITLE4=Go To California
TTITLE5=Painting The Night Unreal
TTITLE6=The Slow Phaseout
TTITLE7=Blindfolded
TTITLE8=When You're Dead
EXTD=
EXTT0=
EXTT1=
EXTT2=
EXTT3=
EXTT4=
EXTT5=
EXTT6=
EXTT7=
EXTT8=
PLAYORDER=
